PathFileType	4	(X/Y/Z)	OpenSim_Sub08_CSBaseline_Gyro.trc
DataRate	CameraRate	NumFrames	NumMarkers	Units	OrigDataRate	OrigDataStartFrame	OrigNumFrames
100	100	26	8	m	100	4779	5461
Frame#	Time	torso_imu_offset_imu	pelvis_imu_offset_imu	tibia_r_imu_offset_imu	femur_r_imu_offset_imu	tibia_l_imu_offset_imu	femur_l_imu_offset_imu	toes_r_imu_offset_imu	toes_l_imu_offset_imu
				X1	Y1	Z1	X2	Y2	Z2	X3	Y3	Z3	X4	Y4	Z4	X5	Y5	Z5	X6	Y6	Z6	X7	Y7	Z7	X8		Y8	Z8	

4779	47.78000000	0.71709800	-0.31433600	0.03647700	-0.07133600	0.03181500	-0.58313300	-0.41940700	-0.29899000	-0.68942300	-0.63457100	-0.25914500	-0.25894800	-0.21769300	-0.27971100	-2.72350200	-1.34154800	0.31736800	-1.28561500	0.02682600	0.00582200	-0.16680700	1.27582800	2.89785900	-2.48409900
4780	47.79000000	0.69787800	-0.30988000	0.01026500	-0.12312700	0.07106400	-0.58990600	-0.30815000	-0.28169300	-0.66610100	-0.57488200	-0.25928200	-0.31813400	-0.71123000	-0.32810100	-3.07753600	-1.53237400	0.29227200	-1.22957300	0.02547000	0.04893100	-0.16137300	0.83292000	3.40285100	-2.63703500
4781	47.80000000	0.67457600	-0.31166200	-0.01284800	-0.16725200	0.10808800	-0.57685100	-0.22973500	-0.27161000	-0.65927300	-0.49124500	-0.25051700	-0.36731500	-1.06742300	-0.33595100	-3.37916300	-1.66401800	0.24879900	-1.15315300	0.03647100	0.06586700	-0.14977200	0.30398800	3.90022800	-2.55853900
4782	47.81000000	0.65964300	-0.30732900	-0.04938000	-0.21272400	0.13350700	-0.56901400	-0.18922600	-0.25172900	-0.63309100	-0.40449300	-0.23824900	-0.41609300	-1.29448800	-0.33613800	-3.64510200	-1.65663300	0.19250000	-1.10761300	0.05790800	0.06272000	-0.14895100	-0.17871100	4.25007200	-2.31389600
4783	47.82000000	0.63264600	-0.30427000	-0.08659100	-0.25505400	0.14818800	-0.55417700	-0.15886100	-0.25259400	-0.58923800	-0.33174200	-0.21278100	-0.44229800	-1.39652900	-0.27843800	-3.95131900	-1.60939100	0.15274600	-1.02787500	0.04082000	0.03826000	-0.14317200	-0.15761800	4.45245500	-2.01943400
4784	47.83000000	0.59372700	-0.29417100	-0.10049200	-0.30667200	0.15807600	-0.54279400	-0.18819700	-0.24954400	-0.54327100	-0.31619500	-0.16851000	-0.46025500	-1.31271200	-0.19148100	-4.28631400	-1.45015000	0.11407600	-0.93472600	0.07256000	0.07405000	-0.17253700	0.59808400	4.60564800	-1.74782900
4785	47.84000000	0.53551100	-0.28098000	-0.11304700	-0.35775200	0.16263900	-0.52655700	-0.23302300	-0.22398500	-0.54299500	-0.35041100	-0.12619600	-0.47851200	-1.02525400	-0.12063100	-4.56423700	-1.16337800	0.03659900	-0.84571200	0.04293800	0.06740500	-0.18383000	1.34390400	4.79917000	-1.47186300
4786	47.85000000	0.49353300	-0.26975800	-0.10059500	-0.41456000	0.16368200	-0.51211500	-0.20933900	-0.19026100	-0.56251700	-0.42524400	-0.10670800	-0.49229800	-0.57079000	-0.06534400	-4.80976700	-0.84745800	-0.03845600	-0.75719100	0.07123900	0.09071700	-0.22544000	1.42070400	5.03335000	-1.12496100
4787	47.86000000	0.45448300	-0.25358400	-0.08798000	-0.45965600	0.18153600	-0.50485600	-0.11525100	-0.19391000	-0.53525800	-0.50841700	-0.11176300	-0.49769500	-0.09061000	-0.01164300	-5.03263500	-0.55236500	-0.08436800	-0.63129200	0.08816200	0.11978300	-0.23358500	1.22401700	5.23210000	-0.80728000
4788	47.87000000	0.41693800	-0.24243400	-0.08580200	-0.49905100	0.21579700	-0.49736000	-0.06376700	-0.20172100	-0.50292100	-0.52954400	-0.10842100	-0.49818500	0.31423400	0.04309900	-5.23452500	-0.24251800	-0.15389900	-0.48173900	0.08900300	0.10559500	-0.23729500	1.12083200	5.24712600	-0.59820500
4789	47.88000000	0.38725100	-0.22089300	-0.06875100	-0.53574300	0.26478400	-0.49751700	-0.01451700	-0.18743700	-0.50185300	-0.54042200	-0.10712300	-0.49941800	0.76035300	0.08995200	-5.37818800	0.04527200	-0.22110700	-0.30608300	0.11644100	0.13795300	-0.24728800	1.23432800	4.98957500	-0.52054900
4790	47.89000000	0.34187800	-0.20828800	-0.05656700	-0.55312600	0.29490300	-0.49661000	0.06695100	-0.19167400	-0.53145800	-0.57103600	-0.12643000	-0.48853600	1.23331300	0.18830500	-5.38813100	0.29745800	-0.30758100	-0.10906100	0.08152000	0.12551500	-0.21618400	1.48048700	4.59732800	-0.56648300
4791	47.90000000	0.29559600	-0.20400600	-0.03484700	-0.55544100	0.29560200	-0.48485100	0.00143600	-0.18262800	-0.55037000	-0.57056800	-0.13491900	-0.46768200	1.51468300	0.24719900	-5.38748700	0.49725400	-0.36766000	0.07202400	0.06676200	0.11483100	-0.21153700	1.72316900	4.46273600	-0.69912100
4792	47.91000000	0.25991600	-0.18637500	-0.01041500	-0.57512500	0.26849600	-0.47409400	-0.08894400	-0.18039000	-0.57803900	-0.54042800	-0.11882400	-0.44558300	1.04037000	0.29792400	-5.44581100	0.61915700	-0.39394600	0.23428000	0.08442300	0.06293800	-0.20056000	1.68861800	4.79072300	-0.86349200
4793	47.92000000	0.22483400	-0.16925800	0.01975600	-0.61246000	0.24123900	-0.44764600	-0.19119300	-0.17304200	-0.60401200	-0.52786200	-0.09915900	-0.43484000	0.07615200	0.20564700	-5.41823800	0.65828900	-0.40776700	0.37923800	0.06111000	0.08067200	-0.17711100	1.17431600	4.96873900	-1.03943600
4794	47.93000000	0.19237500	-0.16100800	0.04442300	-0.66098500	0.21634300	-0.40466100	-0.28992900	-0.17078800	-0.65310800	-0.52384900	-0.07681100	-0.42848700	-0.77329700	0.07451300	-5.20081700	0.69952900	-0.44382500	0.37395700	-0.00417900	0.03309700	-0.15138600	0.47983900	4.82468700	-1.25770300
4795	47.94000000	0.15571200	-0.15958900	0.06356700	-0.70669400	0.18802200	-0.35694300	-0.39374300	-0.17474000	-0.67294100	-0.53359700	-0.06271500	-0.41710400	-1.45044700	0.21614600	-5.00789700	0.59493800	-0.46552600	0.45011700	-0.01284500	-0.00347300	-0.13219700	-0.22096100	4.51622400	-1.60273100
4796	47.95000000	0.10773200	-0.15539000	0.07536700	-0.73114400	0.14020700	-0.31139900	-0.42373400	-0.19371500	-0.67274500	-0.52829800	-0.06201600	-0.39648700	-2.15717100	0.38368500	-4.90948600	0.31456100	-0.44903900	0.57466100	-0.02201000	-0.00951100	-0.15118200	-0.65208300	4.20229100	-2.13381600
4797	47.96000000	0.06821100	-0.16474100	0.09180600	-0.73925300	0.08143800	-0.28119400	-0.42245100	-0.16159500	-0.70383400	-0.51833200	-0.05043500	-0.39684900	-2.64123300	0.32598300	-4.75187100	0.00840900	-0.45063000	0.54949300	-0.01730500	0.01097900	-0.18181300	-0.73532600	3.91416500	-2.80031500
4798	47.97000000	0.04447600	-0.15926600	0.10358600	-0.72627900	0.03040500	-0.25380200	-0.40568600	-0.16302100	-0.73489600	-0.50495600	-0.05157500	-0.42348900	-2.69869900	0.28349200	-4.35118000	-0.41959100	-0.41068300	0.55703400	0.00762100	0.00194600	-0.21748700	-0.72182400	3.61180900	-3.43405700
4799	47.98000000	0.01878000	-0.15436500	0.11294500	-0.69695300	0.00124200	-0.25305300	-0.31383900	-0.15771300	-0.77482000	-0.50074300	-0.05699900	-0.46746300	-2.48239800	0.32437900	-3.86956500	-0.93747000	-0.38243900	0.56536300	0.02975700	0.02224500	-0.24744900	-0.80260200	3.22367500	-3.89321300
4800	47.99000000	0.00056200	-0.14034300	0.12142400	-0.63393200	-0.00779500	-0.25839800	-0.28092900	-0.14277600	-0.77220500	-0.48716800	-0.05214600	-0.50013100	-2.30227200	0.31906700	-3.51640600	-1.43785000	-0.34860800	0.52948700	0.02318800	0.03620300	-0.26019000	-1.03581800	2.77606400	-4.14579000
4801	48.00000000	-0.01393000	-0.12635700	0.12153300	-0.55431500	-0.01906800	-0.27361400	-0.34193600	-0.16413100	-0.75205100	-0.46777000	-0.03023400	-0.53052800	-2.19200400	0.28881500	-3.18838200	-1.79565700	-0.33430700	0.47032700	0.04278200	-0.01696500	-0.26159400	-1.14578200	2.34498400	-4.25264300
4802	48.01000000	-0.01824500	-0.12213300	0.10277200	-0.47124100	-0.04798800	-0.28417200	-0.38594200	-0.15997800	-0.76297900	-0.44474900	-0.00128100	-0.56686600	-2.12995000	0.28368900	-2.76372500	-2.08398500	-0.27292200	0.39012400	0.02555100	0.00906100	-0.24731100	-1.18964300	1.94061600	-4.25569100
4803	48.02000000	-0.02913400	-0.09378000	0.09435200	-0.39512500	-0.08304800	-0.30958100	-0.44218000	-0.11904200	-0.82116800	-0.44516700	0.02236300	-0.61266100	-2.10139100	0.33732000	-2.26720700	-2.04703700	-0.29870500	0.31514300	-0.04630900	-0.00992500	-0.23626700	-1.10329400	1.54854200	-4.17150200
4804	48.03000000	-0.04019100	-0.05764700	0.08635500	-0.33252000	-0.11293400	-0.32943000	-0.53892300	-0.11273100	-0.86271300	-0.45911600	0.03444500	-0.65183700	-2.20954000	0.34049200	-1.80094900	-1.88305900	-0.29308900	0.22905800	-0.03677500	-0.02902800	-0.24987900	-1.21578400	1.17036300	-3.86600200
